<svg xmlns="http://www.w3.org/2000/svg" xmlns:xlink="http://www.w3.org/1999/xlink" width="100" zoomAndPan="magnify" viewBox="0 0 75 30.000001" height="40" preserveAspectRatio="xMidYMid meet" version="1.0"><defs><g><g id="id1"/></g></defs><g fill="rgb(100%, 100%, 100%)" fill-opacity="1"><g transform="translate(4.990945, 18.855564)"><g><path d="M 5.359375 -9.078125 C 5.210938 -9.078125 5.023438 -9.046875 4.796875 -8.984375 C 4.566406 -8.929688 4.320312 -8.835938 4.0625 -8.703125 C 3.8125 -8.578125 3.554688 -8.40625 3.296875 -8.1875 C 3.035156 -7.96875 2.800781 -7.691406 2.59375 -7.359375 C 2.394531 -7.023438 2.226562 -6.628906 2.09375 -6.171875 C 1.957031 -5.710938 1.890625 -5.179688 1.890625 -4.578125 C 1.890625 -4.085938 1.941406 -3.648438 2.046875 -3.265625 C 2.148438 -2.890625 2.285156 -2.5625 2.453125 -2.28125 C 2.617188 -2 2.8125 -1.757812 3.03125 -1.5625 C 3.25 -1.363281 3.476562 -1.203125 3.71875 -1.078125 C 3.96875 -0.960938 4.210938 -0.875 4.453125 -0.8125 C 4.691406 -0.757812 4.921875 -0.734375 5.140625 -0.734375 C 5.191406 -0.734375 5.238281 -0.734375 5.28125 -0.734375 C 5.332031 -0.734375 5.378906 -0.738281 5.421875 -0.75 C 5.515625 -0.78125 5.625 -0.816406 5.75 -0.859375 C 5.882812 -0.898438 6.019531 -0.957031 6.15625 -1.03125 C 6.289062 -1.113281 6.425781 -1.207031 6.5625 -1.3125 C 6.695312 -1.425781 6.816406 -1.5625 6.921875 -1.71875 C 7.035156 -1.875 7.125 -2.054688 7.1875 -2.265625 C 7.257812 -2.472656 7.300781 -2.707031 7.3125 -2.96875 C 7.3125 -3.21875 7.28125 -3.410156 7.21875 -3.546875 C 7.164062 -3.679688 7.109375 -3.78125 7.046875 -3.84375 L 6.671875 -3.796875 C 6.472656 -3.773438 6.269531 -3.738281 6.0625 -3.6875 C 5.863281 -3.632812 5.671875 -3.582031 5.484375 -3.53125 C 5.304688 -3.488281 5.144531 -3.445312 5 -3.40625 C 4.851562 -3.375 4.738281 -3.363281 4.65625 -3.375 C 4.582031 -3.375 4.519531 -3.382812 4.46875 -3.40625 C 4.40625 -3.414062 4.347656 -3.4375 4.296875 -3.46875 C 4.242188 -3.5 4.195312 -3.539062 4.15625 -3.59375 C 4.132812 -3.570312 4.117188 -3.5625 4.109375 -3.5625 C 4.097656 -3.5625 4.085938 -3.566406 4.078125 -3.578125 C 4.066406 -3.578125 4.054688 -3.585938 4.046875 -3.609375 C 4.046875 -3.617188 4.039062 -3.632812 4.03125 -3.65625 C 4.019531 -3.695312 4.015625 -3.753906 4.015625 -3.828125 C 3.992188 -3.828125 3.972656 -3.835938 3.953125 -3.859375 C 3.929688 -3.867188 3.921875 -3.878906 3.921875 -3.890625 C 3.898438 -3.921875 3.878906 -3.953125 3.859375 -3.984375 C 3.835938 -4.023438 3.835938 -4.0625 3.859375 -4.09375 C 3.867188 -4.101562 3.90625 -4.128906 3.96875 -4.171875 C 4.039062 -4.210938 4.15625 -4.257812 4.3125 -4.3125 C 4.476562 -4.363281 4.695312 -4.421875 4.96875 -4.484375 C 5.238281 -4.554688 5.585938 -4.632812 6.015625 -4.71875 C 6.566406 -4.820312 7.039062 -4.890625 7.4375 -4.921875 C 7.84375 -4.960938 8.175781 -4.984375 8.4375 -4.984375 C 8.570312 -4.984375 8.679688 -4.976562 8.765625 -4.96875 C 8.859375 -4.96875 8.929688 -4.960938 8.984375 -4.953125 C 9.078125 -4.929688 9.15625 -4.894531 9.21875 -4.84375 C 9.28125 -4.800781 9.332031 -4.765625 9.375 -4.734375 C 9.382812 -4.710938 9.398438 -4.691406 9.421875 -4.671875 C 9.453125 -4.628906 9.488281 -4.554688 9.53125 -4.453125 C 9.582031 -4.429688 9.617188 -4.40625 9.640625 -4.375 C 9.648438 -4.351562 9.648438 -4.335938 9.640625 -4.328125 C 9.628906 -4.285156 9.617188 -4.226562 9.609375 -4.15625 C 9.597656 -4.09375 9.578125 -4.0625 9.546875 -4.0625 C 9.535156 -4.0625 9.488281 -4.054688 9.40625 -4.046875 C 9.332031 -4.046875 9.226562 -4.039062 9.09375 -4.03125 C 8.96875 -4.019531 8.820312 -4.007812 8.65625 -4 C 8.488281 -3.988281 8.3125 -3.972656 8.125 -3.953125 C 8.21875 -3.847656 8.296875 -3.722656 8.359375 -3.578125 C 8.421875 -3.441406 8.460938 -3.289062 8.484375 -3.125 C 8.515625 -2.90625 8.492188 -2.671875 8.421875 -2.421875 C 8.347656 -2.179688 8.234375 -1.941406 8.078125 -1.703125 C 7.929688 -1.460938 7.738281 -1.234375 7.5 -1.015625 C 7.269531 -0.796875 7.007812 -0.601562 6.71875 -0.4375 C 6.4375 -0.269531 6.125 -0.132812 5.78125 -0.03125 C 5.445312 0.0625 5.097656 0.109375 4.734375 0.109375 C 4.523438 0.109375 4.300781 0.09375 4.0625 0.0625 C 3.832031 0.03125 3.59375 -0.0195312 3.34375 -0.09375 C 3.101562 -0.175781 2.859375 -0.28125 2.609375 -0.40625 C 2.359375 -0.539062 2.109375 -0.707031 1.859375 -0.90625 C 1.378906 -1.269531 1.023438 -1.742188 0.796875 -2.328125 C 0.566406 -2.910156 0.457031 -3.625 0.46875 -4.46875 C 0.46875 -4.832031 0.523438 -5.207031 0.640625 -5.59375 C 0.753906 -5.976562 0.921875 -6.351562 1.140625 -6.71875 C 1.359375 -7.09375 1.613281 -7.445312 1.90625 -7.78125 C 2.207031 -8.125 2.539062 -8.421875 2.90625 -8.671875 C 3.28125 -8.929688 3.675781 -9.140625 4.09375 -9.296875 C 4.519531 -9.453125 4.960938 -9.539062 5.421875 -9.5625 C 5.566406 -9.5625 5.738281 -9.550781 5.9375 -9.53125 C 6.132812 -9.507812 6.332031 -9.472656 6.53125 -9.421875 C 6.738281 -9.367188 6.941406 -9.300781 7.140625 -9.21875 C 7.347656 -9.144531 7.535156 -9.050781 7.703125 -8.9375 C 7.867188 -8.820312 8.003906 -8.6875 8.109375 -8.53125 C 8.222656 -8.375 8.289062 -8.195312 8.3125 -8 C 8.34375 -7.78125 8.328125 -7.578125 8.265625 -7.390625 C 8.210938 -7.210938 8.132812 -7.0625 8.03125 -6.9375 C 7.925781 -6.8125 7.8125 -6.710938 7.6875 -6.640625 C 7.570312 -6.578125 7.46875 -6.550781 7.375 -6.5625 C 7.3125 -6.519531 7.257812 -6.488281 7.21875 -6.46875 C 7.175781 -6.457031 7.132812 -6.445312 7.09375 -6.4375 C 7.0625 -6.425781 7.03125 -6.425781 7 -6.4375 C 6.96875 -6.445312 6.941406 -6.46875 6.921875 -6.5 C 6.910156 -6.519531 6.898438 -6.539062 6.890625 -6.5625 C 6.878906 -6.59375 6.882812 -6.632812 6.90625 -6.6875 C 6.8125 -6.582031 6.734375 -6.503906 6.671875 -6.453125 C 6.609375 -6.398438 6.554688 -6.367188 6.515625 -6.359375 C 6.460938 -6.335938 6.425781 -6.332031 6.40625 -6.34375 C 6.363281 -6.363281 6.351562 -6.382812 6.375 -6.40625 C 6.394531 -6.4375 6.4375 -6.472656 6.5 -6.515625 C 6.5625 -6.554688 6.628906 -6.613281 6.703125 -6.6875 C 6.773438 -6.769531 6.84375 -6.878906 6.90625 -7.015625 C 6.925781 -7.109375 6.945312 -7.210938 6.96875 -7.328125 C 7 -7.453125 7.015625 -7.578125 7.015625 -7.703125 C 7.015625 -7.953125 6.96875 -8.160156 6.875 -8.328125 C 6.789062 -8.503906 6.671875 -8.644531 6.515625 -8.75 C 6.367188 -8.863281 6.195312 -8.945312 6 -9 C 5.800781 -9.050781 5.585938 -9.078125 5.359375 -9.078125 Z M 5.359375 -9.078125 "/></g></g><g transform="translate(14.653325, 18.855564)"><g><path d="M 5.09375 -2.8125 C 5.09375 -2.34375 5.023438 -1.921875 4.890625 -1.546875 C 4.753906 -1.179688 4.566406 -0.863281 4.328125 -0.59375 C 4.097656 -0.332031 3.828125 -0.132812 3.515625 0 C 3.210938 0.144531 2.890625 0.21875 2.546875 0.21875 C 2.410156 0.21875 2.253906 0.203125 2.078125 0.171875 C 1.910156 0.140625 1.742188 0.0820312 1.578125 0 C 1.410156 -0.0703125 1.242188 -0.171875 1.078125 -0.296875 C 0.921875 -0.421875 0.78125 -0.570312 0.65625 -0.75 C 0.53125 -0.9375 0.429688 -1.148438 0.359375 -1.390625 C 0.285156 -1.640625 0.253906 -1.921875 0.265625 -2.234375 C 0.265625 -2.597656 0.304688 -2.929688 0.390625 -3.234375 C 0.484375 -3.535156 0.597656 -3.800781 0.734375 -4.03125 C 0.878906 -4.269531 1.039062 -4.476562 1.21875 -4.65625 C 1.394531 -4.832031 1.570312 -4.976562 1.75 -5.09375 C 1.925781 -5.207031 2.09375 -5.289062 2.25 -5.34375 C 2.414062 -5.40625 2.5625 -5.441406 2.6875 -5.453125 C 2.75 -5.460938 2.773438 -5.457031 2.765625 -5.4375 C 2.753906 -5.414062 2.734375 -5.394531 2.703125 -5.375 C 2.679688 -5.351562 2.660156 -5.332031 2.640625 -5.3125 C 2.628906 -5.289062 2.640625 -5.273438 2.671875 -5.265625 C 2.703125 -5.253906 2.726562 -5.242188 2.75 -5.234375 C 2.769531 -5.234375 2.789062 -5.222656 2.8125 -5.203125 L 2.859375 -5.265625 C 2.890625 -5.285156 2.921875 -5.296875 2.953125 -5.296875 C 2.984375 -5.296875 3.007812 -5.289062 3.03125 -5.28125 C 3.050781 -5.28125 3.066406 -5.28125 3.078125 -5.28125 C 3.097656 -5.28125 3.109375 -5.296875 3.109375 -5.328125 C 3.117188 -5.367188 3.132812 -5.394531 3.15625 -5.40625 C 3.1875 -5.414062 3.242188 -5.421875 3.328125 -5.421875 C 3.378906 -5.421875 3.457031 -5.40625 3.5625 -5.375 C 3.675781 -5.34375 3.796875 -5.285156 3.921875 -5.203125 C 4.054688 -5.128906 4.191406 -5.03125 4.328125 -4.90625 C 4.460938 -4.78125 4.585938 -4.617188 4.703125 -4.421875 C 4.816406 -4.234375 4.910156 -4.003906 4.984375 -3.734375 C 5.054688 -3.472656 5.09375 -3.164062 5.09375 -2.8125 Z M 2.6875 -4.765625 C 2.53125 -4.671875 2.375 -4.539062 2.21875 -4.375 C 2.070312 -4.21875 1.9375 -4.035156 1.8125 -3.828125 C 1.6875 -3.617188 1.585938 -3.382812 1.515625 -3.125 C 1.441406 -2.875 1.40625 -2.601562 1.40625 -2.3125 C 1.40625 -2.007812 1.429688 -1.734375 1.484375 -1.484375 C 1.546875 -1.234375 1.628906 -1.019531 1.734375 -0.84375 C 1.835938 -0.675781 1.960938 -0.539062 2.109375 -0.4375 C 2.265625 -0.34375 2.441406 -0.296875 2.640625 -0.296875 C 2.816406 -0.296875 2.988281 -0.34375 3.15625 -0.4375 C 3.332031 -0.539062 3.484375 -0.6875 3.609375 -0.875 C 3.742188 -1.070312 3.851562 -1.316406 3.9375 -1.609375 C 4.019531 -1.898438 4.0625 -2.238281 4.0625 -2.625 C 4.0625 -3.007812 4.007812 -3.332031 3.90625 -3.59375 C 3.800781 -3.851562 3.6875 -4.0625 3.5625 -4.21875 C 3.4375 -4.382812 3.316406 -4.5 3.203125 -4.5625 C 3.085938 -4.632812 3.015625 -4.671875 2.984375 -4.671875 C 2.921875 -4.671875 2.875 -4.671875 2.84375 -4.671875 C 2.8125 -4.671875 2.757812 -4.703125 2.6875 -4.765625 Z M 2.6875 -4.765625 "/></g></g><g transform="translate(20.237514, 18.855564)"><g/></g><g transform="translate(22.76306, 18.855564)"><g><path d="M 12.984375 -8.984375 C 12.984375 -8.960938 12.945312 -8.867188 12.875 -8.703125 C 12.800781 -8.535156 12.695312 -8.3125 12.5625 -8.03125 C 12.4375 -7.75 12.285156 -7.421875 12.109375 -7.046875 C 11.929688 -6.679688 11.742188 -6.289062 11.546875 -5.875 C 11.347656 -5.46875 11.140625 -5.046875 10.921875 -4.609375 C 10.710938 -4.171875 10.503906 -3.738281 10.296875 -3.3125 C 10.085938 -2.894531 9.890625 -2.492188 9.703125 -2.109375 C 9.515625 -1.722656 9.347656 -1.378906 9.203125 -1.078125 C 9.054688 -0.773438 8.929688 -0.519531 8.828125 -0.3125 C 8.722656 -0.113281 8.65625 0.0078125 8.625 0.0625 C 8.613281 0.101562 8.59375 0.125 8.5625 0.125 C 8.539062 0.132812 8.515625 0.140625 8.484375 0.140625 C 8.460938 0.140625 8.441406 0.128906 8.421875 0.109375 C 8.410156 0.0976562 8.398438 0.101562 8.390625 0.125 C 8.359375 0.132812 8.328125 0.128906 8.296875 0.109375 C 8.273438 0.0976562 8.253906 0.0976562 8.234375 0.109375 C 8.191406 0.148438 8.15625 0.171875 8.125 0.171875 C 8.09375 0.179688 8.078125 0.160156 8.078125 0.109375 C 8.085938 -0.00390625 8.070312 -0.179688 8.03125 -0.421875 C 8 -0.671875 7.945312 -0.960938 7.875 -1.296875 C 7.800781 -1.640625 7.71875 -2.003906 7.625 -2.390625 C 7.539062 -2.785156 7.445312 -3.191406 7.34375 -3.609375 C 7.238281 -4.023438 7.132812 -4.429688 7.03125 -4.828125 C 6.925781 -5.234375 6.828125 -5.609375 6.734375 -5.953125 C 6.640625 -6.304688 6.554688 -6.617188 6.484375 -6.890625 C 6.421875 -7.160156 6.367188 -7.367188 6.328125 -7.515625 C 6.265625 -7.347656 6.175781 -7.117188 6.0625 -6.828125 C 5.945312 -6.535156 5.820312 -6.207031 5.6875 -5.84375 C 5.5625 -5.476562 5.425781 -5.085938 5.28125 -4.671875 C 5.132812 -4.265625 4.984375 -3.859375 4.828125 -3.453125 C 4.679688 -3.046875 4.539062 -2.65625 4.40625 -2.28125 C 4.28125 -1.90625 4.164062 -1.570312 4.0625 -1.28125 C 3.96875 -1 3.890625 -0.765625 3.828125 -0.578125 C 3.765625 -0.398438 3.726562 -0.296875 3.71875 -0.265625 C 3.707031 -0.253906 3.695312 -0.238281 3.6875 -0.21875 C 3.675781 -0.195312 3.660156 -0.171875 3.640625 -0.140625 C 3.617188 -0.109375 3.59375 -0.078125 3.5625 -0.046875 C 3.53125 -0.0351562 3.503906 -0.0234375 3.484375 -0.015625 C 3.460938 -0.015625 3.441406 -0.015625 3.421875 -0.015625 C 3.390625 0.00390625 3.363281 0.0195312 3.34375 0.03125 C 3.320312 0.0507812 3.300781 0.0664062 3.28125 0.078125 C 3.257812 0.0859375 3.242188 0.0976562 3.234375 0.109375 C 3.210938 0.128906 3.1875 0.144531 3.15625 0.15625 C 3.132812 0.175781 3.113281 0.1875 3.09375 0.1875 C 3.082031 0.1875 3.0625 0.179688 3.03125 0.171875 C 3.007812 0.171875 2.984375 0.160156 2.953125 0.140625 C 2.921875 0.128906 2.890625 0.113281 2.859375 0.09375 C 2.835938 0.0820312 2.828125 0.0664062 2.828125 0.046875 C 2.804688 -0.015625 2.769531 -0.128906 2.71875 -0.296875 C 2.664062 -0.460938 2.601562 -0.671875 2.53125 -0.921875 C 2.46875 -1.171875 2.394531 -1.453125 2.3125 -1.765625 C 2.226562 -2.078125 2.140625 -2.410156 2.046875 -2.765625 C 1.953125 -3.117188 1.851562 -3.476562 1.75 -3.84375 C 1.65625 -4.21875 1.554688 -4.59375 1.453125 -4.96875 C 1.378906 -5.25 1.300781 -5.539062 1.21875 -5.84375 C 1.132812 -6.144531 1.050781 -6.441406 0.96875 -6.734375 C 0.882812 -7.035156 0.800781 -7.316406 0.71875 -7.578125 C 0.644531 -7.847656 0.570312 -8.085938 0.5 -8.296875 C 0.4375 -8.515625 0.382812 -8.695312 0.34375 -8.84375 C 0.300781 -9 0.273438 -9.101562 0.265625 -9.15625 C 0.253906 -9.195312 0.265625 -9.226562 0.296875 -9.25 C 0.328125 -9.269531 0.363281 -9.265625 0.40625 -9.234375 C 0.4375 -9.210938 0.460938 -9.207031 0.484375 -9.21875 C 0.503906 -9.238281 0.523438 -9.25 0.546875 -9.25 C 0.554688 -9.25 0.578125 -9.242188 0.609375 -9.234375 C 0.640625 -9.222656 0.671875 -9.210938 0.703125 -9.203125 C 0.734375 -9.191406 0.757812 -9.179688 0.78125 -9.171875 C 0.8125 -9.160156 0.835938 -9.148438 0.859375 -9.140625 C 0.878906 -9.128906 0.890625 -9.125 0.890625 -9.125 C 0.898438 -9.132812 0.90625 -9.144531 0.90625 -9.15625 C 0.914062 -9.164062 0.925781 -9.175781 0.9375 -9.1875 C 0.945312 -9.207031 0.960938 -9.222656 0.984375 -9.234375 C 1.023438 -9.253906 1.066406 -9.25 1.109375 -9.21875 C 1.160156 -9.195312 1.203125 -9.179688 1.234375 -9.171875 C 1.265625 -9.171875 1.28125 -9.175781 1.28125 -9.1875 C 1.28125 -9.195312 1.273438 -9.207031 1.265625 -9.21875 C 1.265625 -9.238281 1.269531 -9.253906 1.28125 -9.265625 C 1.289062 -9.273438 1.316406 -9.28125 1.359375 -9.28125 C 1.421875 -9.28125 1.472656 -9.265625 1.515625 -9.234375 C 1.554688 -9.203125 1.59375 -9.117188 1.625 -8.984375 C 1.632812 -8.941406 1.664062 -8.832031 1.71875 -8.65625 C 1.769531 -8.476562 1.832031 -8.25 1.90625 -7.96875 C 1.988281 -7.6875 2.078125 -7.367188 2.171875 -7.015625 C 2.265625 -6.660156 2.363281 -6.289062 2.46875 -5.90625 C 2.582031 -5.519531 2.691406 -5.128906 2.796875 -4.734375 C 2.910156 -4.347656 3.015625 -3.976562 3.109375 -3.625 C 3.203125 -3.28125 3.285156 -2.96875 3.359375 -2.6875 C 3.441406 -2.40625 3.507812 -2.171875 3.5625 -1.984375 C 3.6875 -2.234375 3.828125 -2.539062 3.984375 -2.90625 C 4.140625 -3.28125 4.296875 -3.679688 4.453125 -4.109375 C 4.617188 -4.535156 4.785156 -4.972656 4.953125 -5.421875 C 5.117188 -5.867188 5.273438 -6.289062 5.421875 -6.6875 C 5.566406 -7.082031 5.691406 -7.441406 5.796875 -7.765625 C 5.910156 -8.085938 5.992188 -8.332031 6.046875 -8.5 C 6.085938 -8.601562 6.113281 -8.691406 6.125 -8.765625 C 6.144531 -8.847656 6.164062 -8.925781 6.1875 -9 C 6.21875 -9.050781 6.253906 -9.109375 6.296875 -9.171875 C 6.347656 -9.242188 6.382812 -9.285156 6.40625 -9.296875 C 6.46875 -9.328125 6.519531 -9.335938 6.5625 -9.328125 C 6.613281 -9.328125 6.671875 -9.316406 6.734375 -9.296875 C 6.753906 -9.296875 6.765625 -9.300781 6.765625 -9.3125 C 6.773438 -9.332031 6.78125 -9.347656 6.78125 -9.359375 C 6.789062 -9.378906 6.800781 -9.398438 6.8125 -9.421875 C 6.820312 -9.453125 6.84375 -9.472656 6.875 -9.484375 C 6.988281 -9.546875 7.054688 -9.570312 7.078125 -9.5625 C 7.109375 -9.550781 7.132812 -9.492188 7.15625 -9.390625 C 7.164062 -9.367188 7.191406 -9.269531 7.234375 -9.09375 C 7.273438 -8.914062 7.328125 -8.679688 7.390625 -8.390625 C 7.460938 -8.109375 7.539062 -7.78125 7.625 -7.40625 C 7.71875 -7.039062 7.8125 -6.660156 7.90625 -6.265625 C 8.007812 -5.867188 8.109375 -5.46875 8.203125 -5.0625 C 8.304688 -4.65625 8.40625 -4.269531 8.5 -3.90625 C 8.59375 -3.539062 8.679688 -3.210938 8.765625 -2.921875 C 8.847656 -2.628906 8.921875 -2.394531 8.984375 -2.21875 C 9.035156 -2.332031 9.113281 -2.5 9.21875 -2.71875 C 9.332031 -2.9375 9.457031 -3.1875 9.59375 -3.46875 C 9.726562 -3.75 9.878906 -4.054688 10.046875 -4.390625 C 10.210938 -4.722656 10.378906 -5.0625 10.546875 -5.40625 C 10.710938 -5.757812 10.878906 -6.113281 11.046875 -6.46875 C 11.210938 -6.820312 11.367188 -7.160156 11.515625 -7.484375 C 11.671875 -7.816406 11.804688 -8.125 11.921875 -8.40625 C 12.046875 -8.695312 12.144531 -8.953125 12.21875 -9.171875 C 12.226562 -9.203125 12.25 -9.238281 12.28125 -9.28125 C 12.3125 -9.320312 12.34375 -9.359375 12.375 -9.390625 C 12.414062 -9.421875 12.445312 -9.445312 12.46875 -9.46875 C 12.5 -9.488281 12.519531 -9.5 12.53125 -9.5 C 12.570312 -9.488281 12.609375 -9.476562 12.640625 -9.46875 C 12.671875 -9.457031 12.691406 -9.4375 12.703125 -9.40625 C 12.722656 -9.394531 12.734375 -9.378906 12.734375 -9.359375 C 12.734375 -9.347656 12.734375 -9.332031 12.734375 -9.3125 C 12.734375 -9.300781 12.738281 -9.289062 12.75 -9.28125 C 12.757812 -9.28125 12.78125 -9.28125 12.8125 -9.28125 C 12.851562 -9.28125 12.878906 -9.269531 12.890625 -9.25 C 12.910156 -9.226562 12.921875 -9.203125 12.921875 -9.171875 C 12.921875 -9.148438 12.921875 -9.128906 12.921875 -9.109375 C 12.921875 -9.085938 12.929688 -9.082031 12.953125 -9.09375 C 12.972656 -9.09375 12.984375 -9.078125 12.984375 -9.046875 C 12.984375 -9.015625 12.984375 -8.992188 12.984375 -8.984375 Z M 12.984375 -8.984375 "/></g></g><g transform="translate(35.430772, 18.855564)"><g><path d="M 5.09375 -2.8125 C 5.09375 -2.34375 5.023438 -1.921875 4.890625 -1.546875 C 4.753906 -1.179688 4.566406 -0.863281 4.328125 -0.59375 C 4.097656 -0.332031 3.828125 -0.132812 3.515625 0 C 3.210938 0.144531 2.890625 0.21875 2.546875 0.21875 C 2.410156 0.21875 2.253906 0.203125 2.078125 0.171875 C 1.910156 0.140625 1.742188 0.0820312 1.578125 0 C 1.410156 -0.0703125 1.242188 -0.171875 1.078125 -0.296875 C 0.921875 -0.421875 0.78125 -0.570312 0.65625 -0.75 C 0.53125 -0.9375 0.429688 -1.148438 0.359375 -1.390625 C 0.285156 -1.640625 0.253906 -1.921875 0.265625 -2.234375 C 0.265625 -2.597656 0.304688 -2.929688 0.390625 -3.234375 C 0.484375 -3.535156 0.597656 -3.800781 0.734375 -4.03125 C 0.878906 -4.269531 1.039062 -4.476562 1.21875 -4.65625 C 1.394531 -4.832031 1.570312 -4.976562 1.75 -5.09375 C 1.925781 -5.207031 2.09375 -5.289062 2.25 -5.34375 C 2.414062 -5.40625 2.5625 -5.441406 2.6875 -5.453125 C 2.75 -5.460938 2.773438 -5.457031 2.765625 -5.4375 C 2.753906 -5.414062 2.734375 -5.394531 2.703125 -5.375 C 2.679688 -5.351562 2.660156 -5.332031 2.640625 -5.3125 C 2.628906 -5.289062 2.640625 -5.273438 2.671875 -5.265625 C 2.703125 -5.253906 2.726562 -5.242188 2.75 -5.234375 C 2.769531 -5.234375 2.789062 -5.222656 2.8125 -5.203125 L 2.859375 -5.265625 C 2.890625 -5.285156 2.921875 -5.296875 2.953125 -5.296875 C 2.984375 -5.296875 3.007812 -5.289062 3.03125 -5.28125 C 3.050781 -5.28125 3.066406 -5.28125 3.078125 -5.28125 C 3.097656 -5.28125 3.109375 -5.296875 3.109375 -5.328125 C 3.117188 -5.367188 3.132812 -5.394531 3.15625 -5.40625 C 3.1875 -5.414062 3.242188 -5.421875 3.328125 -5.421875 C 3.378906 -5.421875 3.457031 -5.40625 3.5625 -5.375 C 3.675781 -5.34375 3.796875 -5.285156 3.921875 -5.203125 C 4.054688 -5.128906 4.191406 -5.03125 4.328125 -4.90625 C 4.460938 -4.78125 4.585938 -4.617188 4.703125 -4.421875 C 4.816406 -4.234375 4.910156 -4.003906 4.984375 -3.734375 C 5.054688 -3.472656 5.09375 -3.164062 5.09375 -2.8125 Z M 2.6875 -4.765625 C 2.53125 -4.671875 2.375 -4.539062 2.21875 -4.375 C 2.070312 -4.21875 1.9375 -4.035156 1.8125 -3.828125 C 1.6875 -3.617188 1.585938 -3.382812 1.515625 -3.125 C 1.441406 -2.875 1.40625 -2.601562 1.40625 -2.3125 C 1.40625 -2.007812 1.429688 -1.734375 1.484375 -1.484375 C 1.546875 -1.234375 1.628906 -1.019531 1.734375 -0.84375 C 1.835938 -0.675781 1.960938 -0.539062 2.109375 -0.4375 C 2.265625 -0.34375 2.441406 -0.296875 2.640625 -0.296875 C 2.816406 -0.296875 2.988281 -0.34375 3.15625 -0.4375 C 3.332031 -0.539062 3.484375 -0.6875 3.609375 -0.875 C 3.742188 -1.070312 3.851562 -1.316406 3.9375 -1.609375 C 4.019531 -1.898438 4.0625 -2.238281 4.0625 -2.625 C 4.0625 -3.007812 4.007812 -3.332031 3.90625 -3.59375 C 3.800781 -3.851562 3.6875 -4.0625 3.5625 -4.21875 C 3.4375 -4.382812 3.316406 -4.5 3.203125 -4.5625 C 3.085938 -4.632812 3.015625 -4.671875 2.984375 -4.671875 C 2.921875 -4.671875 2.875 -4.671875 2.84375 -4.671875 C 2.8125 -4.671875 2.757812 -4.703125 2.6875 -4.765625 Z M 2.6875 -4.765625 "/></g></g><g transform="translate(41.014961, 18.855564)"><g><path d="M 3.703125 -4.78125 C 3.691406 -4.65625 3.675781 -4.53125 3.65625 -4.40625 C 3.632812 -4.28125 3.601562 -4.160156 3.5625 -4.046875 C 3.53125 -3.929688 3.488281 -3.828125 3.4375 -3.734375 C 3.394531 -3.648438 3.34375 -3.582031 3.28125 -3.53125 C 3.226562 -3.488281 3.1875 -3.46875 3.15625 -3.46875 C 3.125 -3.46875 3.097656 -3.472656 3.078125 -3.484375 C 3.054688 -3.503906 3.035156 -3.523438 3.015625 -3.546875 C 3.003906 -3.566406 2.988281 -3.582031 2.96875 -3.59375 C 2.945312 -3.59375 2.921875 -3.585938 2.890625 -3.578125 C 2.867188 -3.578125 2.84375 -3.578125 2.8125 -3.578125 C 2.78125 -3.585938 2.753906 -3.601562 2.734375 -3.625 C 2.710938 -3.65625 2.695312 -3.710938 2.6875 -3.796875 C 2.675781 -3.878906 2.675781 -3.988281 2.6875 -4.125 C 2.707031 -4.257812 2.71875 -4.390625 2.71875 -4.515625 C 2.71875 -4.628906 2.703125 -4.722656 2.671875 -4.796875 C 2.648438 -4.878906 2.609375 -4.921875 2.546875 -4.921875 C 2.515625 -4.921875 2.457031 -4.894531 2.375 -4.84375 C 2.300781 -4.800781 2.21875 -4.703125 2.125 -4.546875 C 2.03125 -4.398438 1.9375 -4.179688 1.84375 -3.890625 C 1.757812 -3.609375 1.6875 -3.226562 1.625 -2.75 C 1.625 -2.144531 1.628906 -1.65625 1.640625 -1.28125 C 1.648438 -0.90625 1.65625 -0.613281 1.65625 -0.40625 C 1.65625 -0.226562 1.648438 -0.0976562 1.640625 -0.015625 C 1.628906 0.0546875 1.609375 0.101562 1.578125 0.125 C 1.546875 0.132812 1.5 0.148438 1.4375 0.171875 C 1.375 0.191406 1.304688 0.207031 1.234375 0.21875 C 1.160156 0.238281 1.085938 0.253906 1.015625 0.265625 C 0.953125 0.285156 0.914062 0.289062 0.90625 0.28125 C 0.882812 0.28125 0.851562 0.265625 0.8125 0.234375 C 0.78125 0.210938 0.742188 0.179688 0.703125 0.140625 C 0.671875 0.109375 0.640625 0.0703125 0.609375 0.03125 C 0.578125 0 0.5625 -0.0234375 0.5625 -0.046875 C 0.550781 -0.0976562 0.546875 -0.203125 0.546875 -0.359375 C 0.546875 -0.515625 0.546875 -0.703125 0.546875 -0.921875 C 0.554688 -1.148438 0.5625 -1.394531 0.5625 -1.65625 C 0.570312 -1.914062 0.578125 -2.175781 0.578125 -2.4375 C 0.578125 -2.613281 0.582031 -2.800781 0.59375 -3 C 0.601562 -3.207031 0.613281 -3.414062 0.625 -3.625 C 0.644531 -3.84375 0.660156 -4.050781 0.671875 -4.25 C 0.691406 -4.457031 0.707031 -4.644531 0.71875 -4.8125 C 0.738281 -4.976562 0.753906 -5.113281 0.765625 -5.21875 C 0.773438 -5.320312 0.785156 -5.390625 0.796875 -5.421875 C 0.796875 -5.453125 0.8125 -5.460938 0.84375 -5.453125 C 0.875 -5.441406 0.90625 -5.425781 0.9375 -5.40625 C 0.96875 -5.382812 0.992188 -5.363281 1.015625 -5.34375 C 1.046875 -5.332031 1.066406 -5.332031 1.078125 -5.34375 C 1.085938 -5.382812 1.117188 -5.390625 1.171875 -5.359375 C 1.234375 -5.335938 1.289062 -5.304688 1.34375 -5.265625 C 1.351562 -5.242188 1.367188 -5.222656 1.390625 -5.203125 C 1.421875 -5.191406 1.445312 -5.171875 1.46875 -5.140625 C 1.488281 -5.117188 1.503906 -5.085938 1.515625 -5.046875 C 1.535156 -5.015625 1.546875 -4.960938 1.546875 -4.890625 C 1.546875 -4.828125 1.550781 -4.734375 1.5625 -4.609375 C 1.570312 -4.484375 1.582031 -4.335938 1.59375 -4.171875 C 1.644531 -4.335938 1.703125 -4.507812 1.765625 -4.6875 C 1.835938 -4.863281 1.921875 -5.023438 2.015625 -5.171875 C 2.117188 -5.316406 2.238281 -5.4375 2.375 -5.53125 C 2.507812 -5.632812 2.664062 -5.6875 2.84375 -5.6875 C 2.945312 -5.6875 3.050781 -5.664062 3.15625 -5.625 C 3.257812 -5.582031 3.351562 -5.519531 3.4375 -5.4375 C 3.519531 -5.363281 3.582031 -5.269531 3.625 -5.15625 C 3.675781 -5.050781 3.703125 -4.925781 3.703125 -4.78125 Z M 3.703125 -4.78125 "/></g></g><g transform="translate(44.726648, 18.855564)"><g><path d="M 1.765625 -8.984375 C 1.773438 -8.972656 1.773438 -8.898438 1.765625 -8.765625 C 1.753906 -8.628906 1.738281 -8.445312 1.71875 -8.21875 C 1.707031 -8 1.691406 -7.742188 1.671875 -7.453125 C 1.648438 -7.171875 1.625 -6.867188 1.59375 -6.546875 C 1.570312 -6.234375 1.546875 -5.910156 1.515625 -5.578125 C 1.492188 -5.242188 1.472656 -4.925781 1.453125 -4.625 C 1.429688 -4.320312 1.410156 -4.039062 1.390625 -3.78125 C 1.378906 -3.53125 1.367188 -3.316406 1.359375 -3.140625 C 1.453125 -3.191406 1.5625 -3.273438 1.6875 -3.390625 C 1.820312 -3.515625 1.960938 -3.65625 2.109375 -3.8125 C 2.253906 -3.96875 2.398438 -4.128906 2.546875 -4.296875 C 2.703125 -4.472656 2.847656 -4.632812 2.984375 -4.78125 C 3.117188 -4.9375 3.238281 -5.070312 3.34375 -5.1875 C 3.445312 -5.3125 3.53125 -5.398438 3.59375 -5.453125 C 3.664062 -5.523438 3.726562 -5.566406 3.78125 -5.578125 C 3.84375 -5.597656 3.890625 -5.601562 3.921875 -5.59375 C 3.960938 -5.59375 3.992188 -5.578125 4.015625 -5.546875 C 4.046875 -5.523438 4.070312 -5.503906 4.09375 -5.484375 C 4.101562 -5.453125 4.113281 -5.414062 4.125 -5.375 C 4.132812 -5.34375 4.132812 -5.304688 4.125 -5.265625 C 4.125 -5.222656 4.109375 -5.179688 4.078125 -5.140625 C 4.054688 -5.097656 4.007812 -5.054688 3.9375 -5.015625 C 3.820312 -4.921875 3.695312 -4.785156 3.5625 -4.609375 C 3.425781 -4.429688 3.273438 -4.238281 3.109375 -4.03125 C 2.953125 -3.820312 2.773438 -3.613281 2.578125 -3.40625 C 2.390625 -3.207031 2.179688 -3.050781 1.953125 -2.9375 C 2.015625 -2.863281 2.09375 -2.765625 2.1875 -2.640625 C 2.28125 -2.515625 2.382812 -2.378906 2.5 -2.234375 C 2.613281 -2.085938 2.738281 -1.9375 2.875 -1.78125 C 3.007812 -1.632812 3.15625 -1.5 3.3125 -1.375 C 3.46875 -1.25 3.632812 -1.144531 3.8125 -1.0625 C 3.988281 -0.988281 4.175781 -0.953125 4.375 -0.953125 C 4.59375 -0.953125 4.789062 -0.972656 4.96875 -1.015625 C 5.144531 -1.054688 5.296875 -1.109375 5.421875 -1.171875 C 5.546875 -1.242188 5.648438 -1.3125 5.734375 -1.375 C 5.816406 -1.445312 5.875 -1.5 5.90625 -1.53125 C 5.988281 -1.644531 6.054688 -1.679688 6.109375 -1.640625 C 6.160156 -1.597656 6.1875 -1.507812 6.1875 -1.375 C 6.175781 -1.320312 6.148438 -1.238281 6.109375 -1.125 C 6.078125 -1.019531 6.023438 -0.90625 5.953125 -0.78125 C 5.878906 -0.65625 5.789062 -0.523438 5.6875 -0.390625 C 5.59375 -0.253906 5.476562 -0.128906 5.34375 -0.015625 C 5.207031 0.0976562 5.050781 0.1875 4.875 0.25 C 4.707031 0.320312 4.523438 0.359375 4.328125 0.359375 C 4.066406 0.359375 3.828125 0.300781 3.609375 0.1875 C 3.398438 0.0820312 3.203125 -0.0507812 3.015625 -0.21875 C 2.835938 -0.394531 2.671875 -0.585938 2.515625 -0.796875 C 2.359375 -1.015625 2.210938 -1.226562 2.078125 -1.4375 C 1.953125 -1.65625 1.828125 -1.851562 1.703125 -2.03125 C 1.585938 -2.207031 1.472656 -2.34375 1.359375 -2.4375 C 1.367188 -2.375 1.375 -2.304688 1.375 -2.234375 C 1.375 -2.160156 1.375 -2.082031 1.375 -2 C 1.375 -1.769531 1.375 -1.523438 1.375 -1.265625 C 1.375 -1.015625 1.367188 -0.78125 1.359375 -0.5625 C 1.359375 -0.34375 1.359375 -0.15625 1.359375 0 C 1.359375 0.144531 1.359375 0.234375 1.359375 0.265625 C 1.359375 0.328125 1.332031 0.367188 1.28125 0.390625 C 1.226562 0.410156 1.175781 0.421875 1.125 0.421875 C 1.070312 0.421875 1.007812 0.398438 0.9375 0.359375 C 0.875 0.316406 0.804688 0.265625 0.734375 0.203125 C 0.671875 0.148438 0.609375 0.09375 0.546875 0.03125 C 0.484375 -0.0195312 0.441406 -0.0625 0.421875 -0.09375 C 0.398438 -0.125 0.382812 -0.234375 0.375 -0.421875 C 0.363281 -0.617188 0.359375 -0.875 0.359375 -1.1875 C 0.359375 -1.414062 0.359375 -1.671875 0.359375 -1.953125 C 0.359375 -2.234375 0.363281 -2.53125 0.375 -2.84375 C 0.394531 -3.164062 0.410156 -3.5 0.421875 -3.84375 C 0.429688 -4.1875 0.445312 -4.53125 0.46875 -4.875 C 0.488281 -5.476562 0.507812 -6.003906 0.53125 -6.453125 C 0.5625 -6.898438 0.585938 -7.285156 0.609375 -7.609375 C 0.628906 -7.929688 0.65625 -8.203125 0.6875 -8.421875 C 0.71875 -8.640625 0.753906 -8.8125 0.796875 -8.9375 C 0.804688 -8.96875 0.832031 -9 0.875 -9.03125 C 0.925781 -9.070312 0.984375 -9.109375 1.046875 -9.140625 C 1.148438 -9.171875 1.242188 -9.203125 1.328125 -9.234375 C 1.410156 -9.273438 1.460938 -9.296875 1.484375 -9.296875 C 1.515625 -9.296875 1.546875 -9.285156 1.578125 -9.265625 C 1.609375 -9.242188 1.640625 -9.21875 1.671875 -9.1875 C 1.703125 -9.15625 1.722656 -9.117188 1.734375 -9.078125 C 1.753906 -9.046875 1.765625 -9.015625 1.765625 -8.984375 Z M 1.765625 -8.984375 "/></g></g><g transform="translate(50.78396, 18.855564)"><g><path d="M 5.09375 -2.8125 C 5.09375 -2.34375 5.023438 -1.921875 4.890625 -1.546875 C 4.753906 -1.179688 4.566406 -0.863281 4.328125 -0.59375 C 4.097656 -0.332031 3.828125 -0.132812 3.515625 0 C 3.210938 0.144531 2.890625 0.21875 2.546875 0.21875 C 2.410156 0.21875 2.253906 0.203125 2.078125 0.171875 C 1.910156 0.140625 1.742188 0.0820312 1.578125 0 C 1.410156 -0.0703125 1.242188 -0.171875 1.078125 -0.296875 C 0.921875 -0.421875 0.78125 -0.570312 0.65625 -0.75 C 0.53125 -0.9375 0.429688 -1.148438 0.359375 -1.390625 C 0.285156 -1.640625 0.253906 -1.921875 0.265625 -2.234375 C 0.265625 -2.597656 0.304688 -2.929688 0.390625 -3.234375 C 0.484375 -3.535156 0.597656 -3.800781 0.734375 -4.03125 C 0.878906 -4.269531 1.039062 -4.476562 1.21875 -4.65625 C 1.394531 -4.832031 1.570312 -4.976562 1.75 -5.09375 C 1.925781 -5.207031 2.09375 -5.289062 2.25 -5.34375 C 2.414062 -5.40625 2.5625 -5.441406 2.6875 -5.453125 C 2.75 -5.460938 2.773438 -5.457031 2.765625 -5.4375 C 2.753906 -5.414062 2.734375 -5.394531 2.703125 -5.375 C 2.679688 -5.351562 2.660156 -5.332031 2.640625 -5.3125 C 2.628906 -5.289062 2.640625 -5.273438 2.671875 -5.265625 C 2.703125 -5.253906 2.726562 -5.242188 2.75 -5.234375 C 2.769531 -5.234375 2.789062 -5.222656 2.8125 -5.203125 L 2.859375 -5.265625 C 2.890625 -5.285156 2.921875 -5.296875 2.953125 -5.296875 C 2.984375 -5.296875 3.007812 -5.289062 3.03125 -5.28125 C 3.050781 -5.28125 3.066406 -5.28125 3.078125 -5.28125 C 3.097656 -5.28125 3.109375 -5.296875 3.109375 -5.328125 C 3.117188 -5.367188 3.132812 -5.394531 3.15625 -5.40625 C 3.1875 -5.414062 3.242188 -5.421875 3.328125 -5.421875 C 3.378906 -5.421875 3.457031 -5.40625 3.5625 -5.375 C 3.675781 -5.34375 3.796875 -5.285156 3.921875 -5.203125 C 4.054688 -5.128906 4.191406 -5.03125 4.328125 -4.90625 C 4.460938 -4.78125 4.585938 -4.617188 4.703125 -4.421875 C 4.816406 -4.234375 4.910156 -4.003906 4.984375 -3.734375 C 5.054688 -3.472656 5.09375 -3.164062 5.09375 -2.8125 Z M 2.6875 -4.765625 C 2.53125 -4.671875 2.375 -4.539062 2.21875 -4.375 C 2.070312 -4.21875 1.9375 -4.035156 1.8125 -3.828125 C 1.6875 -3.617188 1.585938 -3.382812 1.515625 -3.125 C 1.441406 -2.875 1.40625 -2.601562 1.40625 -2.3125 C 1.40625 -2.007812 1.429688 -1.734375 1.484375 -1.484375 C 1.546875 -1.234375 1.628906 -1.019531 1.734375 -0.84375 C 1.835938 -0.675781 1.960938 -0.539062 2.109375 -0.4375 C 2.265625 -0.34375 2.441406 -0.296875 2.640625 -0.296875 C 2.816406 -0.296875 2.988281 -0.34375 3.15625 -0.4375 C 3.332031 -0.539062 3.484375 -0.6875 3.609375 -0.875 C 3.742188 -1.070312 3.851562 -1.316406 3.9375 -1.609375 C 4.019531 -1.898438 4.0625 -2.238281 4.0625 -2.625 C 4.0625 -3.007812 4.007812 -3.332031 3.90625 -3.59375 C 3.800781 -3.851562 3.6875 -4.0625 3.5625 -4.21875 C 3.4375 -4.382812 3.316406 -4.5 3.203125 -4.5625 C 3.085938 -4.632812 3.015625 -4.671875 2.984375 -4.671875 C 2.921875 -4.671875 2.875 -4.671875 2.84375 -4.671875 C 2.8125 -4.671875 2.757812 -4.703125 2.6875 -4.765625 Z M 2.6875 -4.765625 "/></g></g><g transform="translate(56.368149, 18.855564)"><g><path d="M 4.578125 -0.046875 C 4.578125 -0.00390625 4.539062 0.0390625 4.46875 0.09375 C 4.40625 0.15625 4.328125 0.1875 4.234375 0.1875 C 4.203125 0.1875 4.144531 0.171875 4.0625 0.140625 C 3.976562 0.109375 3.890625 0.0625 3.796875 0 C 3.710938 -0.0507812 3.632812 -0.117188 3.5625 -0.203125 C 3.488281 -0.296875 3.453125 -0.394531 3.453125 -0.5 C 3.441406 -0.550781 3.4375 -0.617188 3.4375 -0.703125 C 3.4375 -0.796875 3.4375 -0.898438 3.4375 -1.015625 C 3.4375 -1.191406 3.4375 -1.390625 3.4375 -1.609375 C 3.4375 -1.828125 3.441406 -2.046875 3.453125 -2.265625 C 3.421875 -2.109375 3.378906 -1.941406 3.328125 -1.765625 C 3.285156 -1.597656 3.234375 -1.425781 3.171875 -1.25 C 3.109375 -1.082031 3.03125 -0.914062 2.9375 -0.75 C 2.84375 -0.59375 2.738281 -0.4375 2.625 -0.28125 C 2.5625 -0.207031 2.492188 -0.140625 2.421875 -0.078125 C 2.359375 -0.0234375 2.289062 0.015625 2.21875 0.046875 C 2.15625 0.0859375 2.09375 0.117188 2.03125 0.140625 C 1.976562 0.160156 1.9375 0.171875 1.90625 0.171875 C 1.894531 0.171875 1.851562 0.148438 1.78125 0.109375 C 1.71875 0.0664062 1.644531 0.0195312 1.5625 -0.03125 C 1.476562 -0.09375 1.382812 -0.160156 1.28125 -0.234375 C 1.1875 -0.304688 1.09375 -0.378906 1 -0.453125 C 0.914062 -0.523438 0.835938 -0.59375 0.765625 -0.65625 C 0.691406 -0.726562 0.640625 -0.78125 0.609375 -0.8125 C 0.578125 -0.863281 0.550781 -0.941406 0.53125 -1.046875 C 0.507812 -1.148438 0.488281 -1.28125 0.46875 -1.4375 C 0.445312 -1.59375 0.429688 -1.769531 0.421875 -1.96875 C 0.410156 -2.164062 0.40625 -2.375 0.40625 -2.59375 C 0.40625 -2.707031 0.40625 -2.859375 0.40625 -3.046875 C 0.414062 -3.242188 0.425781 -3.453125 0.4375 -3.671875 C 0.445312 -3.890625 0.460938 -4.109375 0.484375 -4.328125 C 0.503906 -4.554688 0.53125 -4.757812 0.5625 -4.9375 C 0.59375 -5.125 0.625 -5.273438 0.65625 -5.390625 C 0.695312 -5.503906 0.75 -5.5625 0.8125 -5.5625 C 0.84375 -5.5625 0.898438 -5.550781 0.984375 -5.53125 C 1.078125 -5.507812 1.171875 -5.5 1.265625 -5.5 C 1.398438 -5.5 1.492188 -5.507812 1.546875 -5.53125 C 1.609375 -5.550781 1.648438 -5.5625 1.671875 -5.5625 C 1.722656 -5.5625 1.75 -5.523438 1.75 -5.453125 C 1.75 -5.429688 1.75 -5.410156 1.75 -5.390625 C 1.75 -5.367188 1.742188 -5.347656 1.734375 -5.328125 C 1.722656 -5.296875 1.707031 -5.222656 1.6875 -5.109375 C 1.675781 -5.003906 1.660156 -4.863281 1.640625 -4.6875 C 1.617188 -4.507812 1.597656 -4.3125 1.578125 -4.09375 C 1.554688 -3.882812 1.535156 -3.660156 1.515625 -3.421875 C 1.492188 -3.191406 1.476562 -2.957031 1.46875 -2.71875 C 1.457031 -2.476562 1.453125 -2.25 1.453125 -2.03125 C 1.453125 -1.882812 1.453125 -1.738281 1.453125 -1.59375 C 1.460938 -1.445312 1.472656 -1.3125 1.484375 -1.1875 C 1.503906 -1.070312 1.53125 -0.976562 1.5625 -0.90625 C 1.59375 -0.832031 1.628906 -0.796875 1.671875 -0.796875 C 1.710938 -0.796875 1.769531 -0.8125 1.84375 -0.84375 C 1.914062 -0.882812 2.003906 -0.960938 2.109375 -1.078125 C 2.210938 -1.191406 2.320312 -1.351562 2.4375 -1.5625 C 2.5625 -1.78125 2.691406 -2.066406 2.828125 -2.421875 C 2.960938 -2.773438 3.109375 -3.207031 3.265625 -3.71875 C 3.421875 -4.226562 3.578125 -4.84375 3.734375 -5.5625 C 3.734375 -5.570312 3.738281 -5.578125 3.75 -5.578125 C 3.769531 -5.585938 3.789062 -5.59375 3.8125 -5.59375 C 3.875 -5.59375 3.945312 -5.585938 4.03125 -5.578125 C 4.125 -5.566406 4.210938 -5.550781 4.296875 -5.53125 C 4.378906 -5.507812 4.445312 -5.484375 4.5 -5.453125 C 4.5625 -5.429688 4.59375 -5.40625 4.59375 -5.375 C 4.59375 -5.175781 4.582031 -4.957031 4.5625 -4.71875 C 4.550781 -4.488281 4.53125 -4.242188 4.5 -3.984375 C 4.476562 -3.734375 4.457031 -3.476562 4.4375 -3.21875 C 4.425781 -2.957031 4.421875 -2.695312 4.421875 -2.4375 C 4.421875 -1.976562 4.4375 -1.539062 4.46875 -1.125 C 4.5 -0.707031 4.535156 -0.347656 4.578125 -0.046875 Z M 4.578125 -0.046875 "/></g></g><g transform="translate(61.652471, 18.855564)"><g><path d="M 2.3125 -7.828125 C 2.3125 -7.804688 2.304688 -7.738281 2.296875 -7.625 C 2.296875 -7.507812 2.285156 -7.359375 2.265625 -7.171875 C 2.253906 -6.984375 2.234375 -6.765625 2.203125 -6.515625 C 2.179688 -6.273438 2.160156 -6.015625 2.140625 -5.734375 C 2.421875 -5.765625 2.6875 -5.789062 2.9375 -5.8125 C 3.1875 -5.832031 3.398438 -5.84375 3.578125 -5.84375 C 3.628906 -5.84375 3.675781 -5.832031 3.71875 -5.8125 C 3.769531 -5.789062 3.8125 -5.765625 3.84375 -5.734375 C 3.875 -5.703125 3.894531 -5.671875 3.90625 -5.640625 C 3.925781 -5.609375 3.9375 -5.582031 3.9375 -5.5625 C 3.9375 -5.53125 3.9375 -5.503906 3.9375 -5.484375 C 3.945312 -5.472656 3.953125 -5.453125 3.953125 -5.421875 C 3.953125 -5.335938 3.910156 -5.25 3.828125 -5.15625 C 3.753906 -5.070312 3.640625 -5.019531 3.484375 -5 L 2.078125 -4.84375 C 2.046875 -4.519531 2.019531 -4.1875 2 -3.84375 C 1.988281 -3.507812 1.972656 -3.175781 1.953125 -2.84375 C 1.941406 -2.507812 1.929688 -2.179688 1.921875 -1.859375 C 1.910156 -1.535156 1.90625 -1.226562 1.90625 -0.9375 C 1.90625 -0.75 1.910156 -0.597656 1.921875 -0.484375 C 1.929688 -0.367188 1.9375 -0.296875 1.9375 -0.265625 C 1.9375 -0.179688 1.921875 -0.101562 1.890625 -0.03125 C 1.867188 0.0390625 1.835938 0.101562 1.796875 0.15625 C 1.753906 0.21875 1.710938 0.265625 1.671875 0.296875 C 1.628906 0.335938 1.597656 0.359375 1.578125 0.359375 C 1.410156 0.359375 1.28125 0.304688 1.1875 0.203125 C 1.09375 0.109375 1.019531 -0.0195312 0.96875 -0.1875 C 0.925781 -0.351562 0.898438 -0.546875 0.890625 -0.765625 C 0.878906 -0.984375 0.875 -1.210938 0.875 -1.453125 C 0.875 -2.003906 0.890625 -2.554688 0.921875 -3.109375 C 0.953125 -3.671875 0.992188 -4.207031 1.046875 -4.71875 L 0.21875 -4.625 C 0.207031 -4.625 0.191406 -4.617188 0.171875 -4.609375 C 0.160156 -4.609375 0.148438 -4.609375 0.140625 -4.609375 C 0.046875 -4.609375 -0.0195312 -4.628906 -0.0625 -4.671875 C -0.113281 -4.710938 -0.148438 -4.757812 -0.171875 -4.8125 C -0.203125 -4.863281 -0.222656 -4.914062 -0.234375 -4.96875 C -0.242188 -5.03125 -0.25 -5.078125 -0.25 -5.109375 C -0.25 -5.160156 -0.238281 -5.210938 -0.21875 -5.265625 C -0.195312 -5.328125 -0.164062 -5.363281 -0.125 -5.375 C -0.03125 -5.40625 0.128906 -5.441406 0.359375 -5.484375 C 0.597656 -5.535156 0.863281 -5.582031 1.15625 -5.625 C 1.207031 -5.976562 1.257812 -6.304688 1.3125 -6.609375 C 1.363281 -6.910156 1.410156 -7.171875 1.453125 -7.390625 C 1.503906 -7.609375 1.550781 -7.773438 1.59375 -7.890625 C 1.632812 -8.015625 1.671875 -8.078125 1.703125 -8.078125 C 1.710938 -8.078125 1.722656 -8.078125 1.734375 -8.078125 C 1.753906 -8.078125 1.765625 -8.078125 1.765625 -8.078125 C 1.796875 -8.078125 1.816406 -8.085938 1.828125 -8.109375 C 1.847656 -8.140625 1.878906 -8.15625 1.921875 -8.15625 C 1.960938 -8.15625 2.003906 -8.140625 2.046875 -8.109375 C 2.097656 -8.085938 2.140625 -8.0625 2.171875 -8.03125 C 2.210938 -8 2.242188 -7.960938 2.265625 -7.921875 C 2.296875 -7.878906 2.3125 -7.847656 2.3125 -7.828125 Z M 2.3125 -7.828125 "/></g></g><g transform="translate(64.970999, 18.855564)"><g/></g><g transform="translate(67.496545, 18.855564)"><g><path d="M 1.78125 -9.078125 C 1.757812 -8.929688 1.734375 -8.738281 1.703125 -8.5 C 1.679688 -8.269531 1.664062 -8.015625 1.65625 -7.734375 C 1.644531 -7.453125 1.632812 -7.144531 1.625 -6.8125 C 1.613281 -6.488281 1.609375 -6.160156 1.609375 -5.828125 C 1.609375 -5.566406 1.609375 -5.304688 1.609375 -5.046875 C 1.617188 -4.796875 1.628906 -4.546875 1.640625 -4.296875 C 1.640625 -4.222656 1.640625 -4.097656 1.640625 -3.921875 C 1.648438 -3.753906 1.65625 -3.546875 1.65625 -3.296875 C 1.65625 -3.148438 1.648438 -3.003906 1.640625 -2.859375 C 1.640625 -2.710938 1.632812 -2.582031 1.625 -2.46875 C 1.625 -2.351562 1.617188 -2.253906 1.609375 -2.171875 C 1.609375 -2.085938 1.601562 -2.035156 1.59375 -2.015625 C 1.550781 -1.929688 1.507812 -1.867188 1.46875 -1.828125 C 1.425781 -1.796875 1.390625 -1.785156 1.359375 -1.796875 C 1.347656 -1.796875 1.332031 -1.816406 1.3125 -1.859375 C 1.3125 -1.867188 1.285156 -1.867188 1.234375 -1.859375 C 1.191406 -1.859375 1.148438 -1.863281 1.109375 -1.875 C 1.078125 -1.875 1.050781 -1.882812 1.03125 -1.90625 C 1.019531 -1.925781 0.988281 -1.929688 0.9375 -1.921875 C 0.914062 -1.921875 0.890625 -1.9375 0.859375 -1.96875 C 0.835938 -2.007812 0.820312 -2.0625 0.8125 -2.125 C 0.8125 -2.15625 0.804688 -2.242188 0.796875 -2.390625 C 0.796875 -2.535156 0.789062 -2.710938 0.78125 -2.921875 C 0.769531 -3.140625 0.753906 -3.378906 0.734375 -3.640625 C 0.722656 -3.898438 0.710938 -4.160156 0.703125 -4.421875 C 0.691406 -4.679688 0.679688 -4.925781 0.671875 -5.15625 C 0.671875 -5.394531 0.671875 -5.597656 0.671875 -5.765625 C 0.671875 -5.953125 0.664062 -6.160156 0.65625 -6.390625 C 0.644531 -6.628906 0.632812 -6.867188 0.625 -7.109375 C 0.613281 -7.359375 0.601562 -7.601562 0.59375 -7.84375 C 0.59375 -8.09375 0.59375 -8.328125 0.59375 -8.546875 C 0.59375 -8.691406 0.59375 -8.828125 0.59375 -8.953125 C 0.59375 -9.078125 0.597656 -9.191406 0.609375 -9.296875 C 0.617188 -9.316406 0.625 -9.332031 0.625 -9.34375 C 0.625 -9.363281 0.628906 -9.378906 0.640625 -9.390625 C 0.648438 -9.398438 0.671875 -9.414062 0.703125 -9.4375 C 0.734375 -9.457031 0.78125 -9.476562 0.84375 -9.5 C 0.9375 -9.550781 1.007812 -9.582031 1.0625 -9.59375 C 1.125 -9.613281 1.175781 -9.625 1.21875 -9.625 C 1.28125 -9.625 1.332031 -9.609375 1.375 -9.578125 C 1.40625 -9.554688 1.429688 -9.539062 1.453125 -9.53125 C 1.484375 -9.53125 1.507812 -9.53125 1.53125 -9.53125 C 1.5625 -9.539062 1.585938 -9.550781 1.609375 -9.5625 C 1.628906 -9.570312 1.648438 -9.570312 1.671875 -9.5625 C 1.710938 -9.550781 1.742188 -9.53125 1.765625 -9.5 C 1.796875 -9.46875 1.8125 -9.40625 1.8125 -9.3125 C 1.8125 -9.28125 1.804688 -9.242188 1.796875 -9.203125 C 1.796875 -9.171875 1.789062 -9.128906 1.78125 -9.078125 Z M 1.84375 -0.703125 C 1.84375 -0.640625 1.835938 -0.566406 1.828125 -0.484375 C 1.816406 -0.398438 1.800781 -0.320312 1.78125 -0.25 C 1.757812 -0.175781 1.726562 -0.109375 1.6875 -0.046875 C 1.644531 0.015625 1.59375 0.0507812 1.53125 0.0625 C 1.457031 0.09375 1.390625 0.113281 1.328125 0.125 C 1.265625 0.144531 1.207031 0.15625 1.15625 0.15625 C 1.070312 0.15625 1 0.140625 0.9375 0.109375 C 0.875 0.078125 0.8125 0.0390625 0.75 0 C 0.664062 -0.0507812 0.59375 -0.117188 0.53125 -0.203125 C 0.46875 -0.285156 0.4375 -0.367188 0.4375 -0.453125 C 0.4375 -0.515625 0.453125 -0.585938 0.484375 -0.671875 C 0.515625 -0.765625 0.550781 -0.851562 0.59375 -0.9375 C 0.632812 -1.03125 0.679688 -1.109375 0.734375 -1.171875 C 0.785156 -1.242188 0.832031 -1.296875 0.875 -1.328125 C 0.945312 -1.367188 1.003906 -1.390625 1.046875 -1.390625 C 1.097656 -1.390625 1.144531 -1.390625 1.1875 -1.390625 C 1.394531 -1.390625 1.550781 -1.335938 1.65625 -1.234375 C 1.769531 -1.128906 1.832031 -0.953125 1.84375 -0.703125 Z M 1.84375 -0.703125 "/></g></g></g></svg>